<svg width="160" height="52" viewBox="0 0 160 52" fill="none" xmlns="http://www.w3.org/2000/svg">
<mask id="mask0" mask-type="alpha" maskUnits="userSpaceOnUse" x="0" y="0" width="156" height="52">
<path d="M129.423 0C137.286 0 144.595 3.36148 149.614 9.09213C153.709 13.7685 156 19.712 156 26C156 40.3659 144.095 52 129.423 52C123.259 52 117.414 49.9394 112.719 46.2241C112.247 45.8504 112.166 45.1635 112.539 44.6898C112.912 44.2162 113.596 44.1351 114.069 44.5089C118.381 47.9219 123.752 49.8151 129.423 49.8151C142.904 49.8151 153.822 39.1463 153.822 26C153.822 20.2495 151.728 14.8167 147.977 10.5341C143.369 5.27276 136.655 2.18487 129.423 2.18487C123.62 2.18487 118.134 4.16724 113.777 7.72573C113.31 8.10666 112.624 8.03617 112.245 7.56829C111.865 7.10041 111.935 6.41232 112.402 6.0314C117.145 2.15759 123.116 0 129.423 0ZM30.7227 29.2383C32.0247 29.2383 33.0371 29.72 33.7598 30.6836C34.4824 31.6471 34.8438 32.9753 34.8438 34.668V34.8145C34.8438 36.4421 34.4743 37.7458 33.7354 38.7256C32.9964 39.7054 31.9987 40.1953 30.7422 40.1953C29.6745 40.1953 28.8119 39.8242 28.1543 39.082V44.0625H25.332V29.4336H27.9492L28.0469 30.4688C28.7305 29.6484 29.6224 29.2383 30.7227 29.2383ZM19.4629 29.2383C20.765 29.2383 21.7773 29.72 22.5 30.6836C23.2227 31.6471 23.584 32.9753 23.584 34.668V34.8145C23.584 36.4421 23.2145 37.7458 22.4756 38.7256C21.7367 39.7054 20.7389 40.1953 19.4824 40.1953C18.4147 40.1953 17.5521 39.8242 16.8945 39.082V44.0625H14.0723V29.4336H16.6895L16.7871 30.4688C17.4707 29.6484 18.3626 29.2383 19.4629 29.2383ZM99.4141 29.2383C100.859 29.2383 101.997 29.694 102.827 30.6055C103.657 31.5169 104.072 32.8092 104.072 34.4824V35.6348H97.3438C97.4349 36.3249 97.71 36.8783 98.1689 37.2949C98.6279 37.7116 99.209 37.9199 99.9121 37.9199C100.999 37.9199 101.849 37.526 102.461 36.7383L103.848 38.291C103.424 38.89 102.852 39.3571 102.129 39.6924C101.406 40.0277 100.605 40.1953 99.7266 40.1953C98.1771 40.1953 96.9157 39.7201 95.9424 38.7695C94.9691 37.819 94.4824 36.5527 94.4824 34.9707V34.6973C94.4824 33.6361 94.6875 32.6872 95.0977 31.8506C95.5078 31.014 96.0889 30.3695 96.8408 29.917C97.5928 29.4645 98.4505 29.2383 99.4141 29.2383ZM80.9961 29.2383C82.4219 29.2383 83.5856 29.6745 84.4873 30.5469C85.389 31.4193 85.8919 32.6042 85.9961 34.1016L86.0156 34.8242C86.0156 36.4453 85.5632 37.7458 84.6582 38.7256C83.7533 39.7054 82.5391 40.1953 81.0156 40.1953C79.4922 40.1953 78.2764 39.707 77.3682 38.7305C76.46 37.7539 76.0059 36.4258 76.0059 34.7461V34.6191C76.0059 33.571 76.2077 32.6367 76.6113 31.8164C77.015 30.9961 77.596 30.3613 78.3545 29.9121C79.113 29.4629 79.9935 29.2383 80.9961 29.2383ZM73.3594 26.8359V29.4336H75.166V31.5039H73.3594V36.7773C73.3594 37.168 73.4342 37.4479 73.584 37.6172C73.7337 37.7865 74.0202 37.8711 74.4434 37.8711C74.7559 37.8711 75.0326 37.8483 75.2734 37.8027V39.9414C74.72 40.1107 74.1504 40.1953 73.5645 40.1953C71.5853 40.1953 70.5762 39.196 70.5371 37.1973V31.5039H68.9941V29.4336H70.5371V26.8359H73.3594ZM62.959 25.5859C63.9746 25.5859 64.8796 25.7699 65.6738 26.1377C66.4681 26.5055 67.085 27.0247 67.5244 27.6953C67.9639 28.3659 68.1836 29.1276 68.1836 29.9805H65.2539C65.2539 29.3294 65.0488 28.8232 64.6387 28.4619C64.2285 28.1006 63.6523 27.9199 62.9102 27.9199C62.194 27.9199 61.6374 28.0713 61.2402 28.374C60.8431 28.6768 60.6445 29.0755 60.6445 29.5703C60.6445 30.0326 60.8773 30.4199 61.3428 30.7324C61.8083 31.0449 62.4935 31.3379 63.3984 31.6113C65.0651 32.1126 66.2793 32.7344 67.041 33.4766C67.8027 34.2188 68.1836 35.1432 68.1836 36.25C68.1836 37.4805 67.7181 38.4456 66.7871 39.1455C65.8561 39.8454 64.6029 40.1953 63.0273 40.1953C61.9336 40.1953 60.9375 39.9951 60.0391 39.5947C59.1406 39.1943 58.4554 38.6458 57.9834 37.9492C57.5114 37.2526 57.2754 36.4453 57.2754 35.5273H60.2148C60.2148 37.0964 61.1523 37.8809 63.0273 37.8809C63.724 37.8809 64.2676 37.7393 64.6582 37.4561C65.0488 37.1729 65.2441 36.7773 65.2441 36.2695C65.2441 35.7161 65.0488 35.2913 64.6582 34.9951C64.2676 34.6989 63.5645 34.3864 62.5488 34.0576C61.5332 33.7288 60.7292 33.4049 60.1367 33.0859C58.5221 32.2135 57.7148 31.0384 57.7148 29.5605C57.7148 28.7923 57.9313 28.1071 58.3643 27.5049C58.7972 26.9027 59.4189 26.4323 60.2295 26.0938C61.04 25.7552 61.9499 25.5859 62.959 25.5859ZM46.4453 29.2383C47.8906 29.2383 49.0283 29.694 49.8584 30.6055C50.6885 31.5169 51.1035 32.8092 51.1035 34.4824V35.6348H44.375C44.4661 36.3249 44.7412 36.8783 45.2002 37.2949C45.6592 37.7116 46.2402 37.9199 46.9434 37.9199C48.0306 37.9199 48.8802 37.526 49.4922 36.7383L50.8789 38.291C50.4557 38.89 49.8828 39.3571 49.1602 39.6924C48.4375 40.0277 47.6367 40.1953 46.7578 40.1953C45.2083 40.1953 43.9469 39.7201 42.9736 38.7695C42.0003 37.819 41.5137 36.5527 41.5137 34.9707V34.6973C41.5137 33.6361 41.7187 32.6872 42.1289 31.8506C42.5391 31.014 43.1201 30.3695 43.8721 29.917C44.624 29.4645 45.4818 29.2383 46.4453 29.2383ZM8.07617 25.7812L13.3984 40H10.2832L9.29688 37.0703H4.16016L3.18359 40H0.0683594L5.36133 25.7812H8.07617ZM39.5703 25V40H36.7383V25H39.5703ZM92.8516 29.2383C93.1641 29.2383 93.457 29.2806 93.7305 29.3652L93.6914 32.0801C93.3073 32.028 92.9688 32.002 92.6758 32.002C91.6081 32.002 90.9082 32.3633 90.5762 33.0859V40H87.7539V29.4336H90.4199L90.498 30.6934C91.0645 29.7233 91.849 29.2383 92.8516 29.2383ZM80.9961 31.5234C80.306 31.5234 79.7721 31.792 79.3945 32.3291C79.0169 32.8662 78.8281 33.6979 78.8281 34.8242C78.8281 35.8268 79.0169 36.5934 79.3945 37.124C79.7721 37.6546 80.3125 37.9199 81.0156 37.9199C81.6992 37.9199 82.2331 37.6579 82.6172 37.1338C83.0013 36.6097 83.1934 35.7715 83.1934 34.6191C83.1934 33.6361 83.0013 32.8744 82.6172 32.334C82.2331 31.7936 81.6927 31.5234 80.9961 31.5234ZM29.9805 31.5332C29.095 31.5332 28.4863 31.8717 28.1543 32.5488V36.875C28.4994 37.5716 29.1146 37.9199 30 37.9199C31.3477 37.9199 32.0215 36.8164 32.0215 34.6094C32.0215 33.6263 31.8473 32.8678 31.499 32.334C31.1507 31.8001 30.6445 31.5332 29.9805 31.5332ZM18.7207 31.5332C17.8353 31.5332 17.2266 31.8717 16.8945 32.5488V36.875C17.2396 37.5716 17.8548 37.9199 18.7402 37.9199C20.0879 37.9199 20.7617 36.8164 20.7617 34.6094C20.7617 33.6263 20.5876 32.8678 20.2393 32.334C19.8909 31.8001 19.3848 31.5332 18.7207 31.5332ZM135.121 18.0177C135.879 18.0507 138.016 18.3125 139.39 20.2393C139.276 20.3083 136.84 21.6674 136.866 24.5018C136.897 27.8904 139.964 29.0184 140 29.0319C139.971 29.1084 139.508 30.6392 138.382 32.2151C137.413 33.5809 136.401 34.9422 134.81 34.9692C133.251 34.9984 132.748 34.0811 130.962 34.0811C129.176 34.0811 128.618 34.9422 127.14 34.9984C125.603 35.0562 124.438 33.5231 123.456 32.1641C121.45 29.3837 119.921 24.3052 121.974 20.8806C122.998 19.178 124.821 18.1025 126.803 18.0732C128.312 18.0492 129.733 19.046 130.655 19.046C131.577 19.046 133.303 17.8407 135.121 18.0177ZM6.71875 29.375L4.95117 34.6973H8.50586L6.71875 29.375ZM99.4043 31.5234C98.8444 31.5234 98.3903 31.7122 98.042 32.0898C97.6937 32.4674 97.4707 33.0078 97.373 33.7109H101.299V33.4863C101.286 32.8613 101.117 32.3779 100.791 32.0361C100.465 31.6943 100.003 31.5234 99.4043 31.5234ZM46.4355 31.5234C45.8756 31.5234 45.4216 31.7122 45.0732 32.0898C44.7249 32.4674 44.502 33.0078 44.4043 33.7109H48.3301V33.4863C48.3171 32.8613 48.1478 32.3779 47.8223 32.0361C47.4967 31.6943 47.0345 31.5234 46.4355 31.5234ZM24.1172 10.4668C25.0059 10.4668 25.7088 10.8018 26.2261 11.4717C26.7433 12.1416 27.002 13.0736 27.002 14.2676V14.3838C27.002 15.5094 26.7445 16.4163 26.2295 17.1045C25.7145 17.7926 25.0173 18.1367 24.1377 18.1367C23.2399 18.1367 22.5335 17.8519 22.0186 17.2822V20.8438H20.7539V10.6035H21.9092L21.9707 11.4238C22.4857 10.7858 23.2012 10.4668 24.1172 10.4668ZM31.6299 10.4668C32.637 10.4668 33.4517 10.8154 34.0737 11.5127C34.6958 12.21 35.0068 13.1374 35.0068 14.2949V14.3838C35.0068 15.1038 34.869 15.7498 34.5933 16.3218C34.3175 16.8937 33.9233 17.3392 33.4106 17.6582C32.8979 17.9772 32.3089 18.1367 31.6436 18.1367C30.6409 18.1367 29.8286 17.7881 29.2065 17.0908C28.5845 16.3936 28.2734 15.4707 28.2734 14.3223V14.2334C28.2734 13.5088 28.4159 12.8571 28.7007 12.2783C28.9855 11.6995 29.382 11.2529 29.8901 10.9385C30.3983 10.624 30.9782 10.4668 31.6299 10.4668ZM16.2148 10.4668C17.0534 10.4668 17.7336 10.6833 18.2554 11.1162C18.7772 11.5492 19.0381 12.1029 19.0381 12.7773H17.7666C17.7666 12.431 17.6196 12.1325 17.3257 11.8818C17.0317 11.6312 16.6615 11.5059 16.2148 11.5059C15.7546 11.5059 15.3945 11.6061 15.1348 11.8066C14.875 12.0072 14.7451 12.2692 14.7451 12.5928C14.7451 12.8981 14.8659 13.1283 15.1074 13.2832C15.349 13.4382 15.7853 13.5863 16.4165 13.7275C17.0477 13.8688 17.5592 14.0374 17.9512 14.2334C18.3431 14.4294 18.6336 14.6652 18.8228 14.9409C19.0119 15.2166 19.1064 15.5527 19.1064 15.9492C19.1064 16.61 18.8421 17.1398 18.3135 17.5386C17.7848 17.9373 17.099 18.1367 16.2559 18.1367C15.6634 18.1367 15.1393 18.0319 14.6836 17.8223C14.2279 17.6126 13.8713 17.3198 13.6138 16.9438C13.3563 16.5679 13.2275 16.1611 13.2275 15.7236H14.4922C14.515 16.1475 14.6847 16.4836 15.0015 16.7319C15.3182 16.9803 15.7363 17.1045 16.2559 17.1045C16.7344 17.1045 17.1183 17.0077 17.4077 16.814C17.6971 16.6203 17.8418 16.3617 17.8418 16.0381C17.8418 15.6963 17.7131 15.4308 17.4556 15.2417C17.1981 15.0526 16.7492 14.8896 16.1089 14.7529C15.4686 14.6162 14.9605 14.4521 14.5845 14.2607C14.2085 14.0693 13.9305 13.8415 13.7505 13.5771C13.5705 13.3128 13.4805 12.9984 13.4805 12.6338C13.4805 12.0277 13.7368 11.515 14.2495 11.0957C14.7622 10.6764 15.4173 10.4668 16.2148 10.4668ZM57.4697 10.4668C58.4313 10.4668 59.1787 10.7835 59.7119 11.417C60.2451 12.0505 60.5117 12.9574 60.5117 14.1377V14.6641H55.501C55.5192 15.3932 55.7323 15.9823 56.1401 16.4312C56.548 16.88 57.0664 17.1045 57.6953 17.1045C58.1419 17.1045 58.5202 17.0133 58.8301 16.8311C59.14 16.6488 59.4111 16.4072 59.6436 16.1064L60.416 16.708C59.7962 17.6605 58.8665 18.1367 57.627 18.1367C56.6243 18.1367 55.8086 17.8075 55.1797 17.1489C54.5508 16.4904 54.2363 15.6097 54.2363 14.5068V14.2744C54.2363 13.5407 54.3765 12.8856 54.6567 12.3091C54.937 11.7326 55.3289 11.2814 55.8325 10.9556C56.3361 10.6297 56.8818 10.4668 57.4697 10.4668ZM79.4404 10.4668C80.2926 10.4668 80.9603 10.6798 81.4434 11.106C81.9264 11.5321 82.1771 12.1188 82.1953 12.8662V16.2705C82.1953 16.9495 82.2819 17.4896 82.4551 17.8906V18H81.1289C81.056 17.8542 80.9967 17.5944 80.9512 17.2207C80.3633 17.8314 79.6615 18.1367 78.8457 18.1367C78.1165 18.1367 77.5184 17.9305 77.0513 17.5181C76.5841 17.1056 76.3506 16.5827 76.3506 15.9492C76.3506 15.179 76.6434 14.5809 77.229 14.1548C77.8146 13.7287 78.6383 13.5156 79.7002 13.5156H80.9307V12.9346C80.9307 12.4925 80.7985 12.1405 80.5342 11.8784C80.2699 11.6164 79.8802 11.4854 79.3652 11.4854C78.9141 11.4854 78.5358 11.5993 78.2305 11.8271C77.9251 12.055 77.7725 12.3307 77.7725 12.6543H76.501C76.501 12.2852 76.632 11.9285 76.894 11.5845C77.1561 11.2404 77.5116 10.9681 77.9604 10.7676C78.4093 10.5671 78.9027 10.4668 79.4404 10.4668ZM3.96484 8.04688C4.83073 8.04688 5.59635 8.23828 6.26172 8.62109C6.92709 9.00391 7.44092 9.5485 7.80322 10.2549C8.16553 10.9613 8.34896 11.7725 8.35352 12.6885V13.3242C8.35352 14.263 8.17237 15.0856 7.81006 15.792C7.44775 16.4984 6.9305 17.0407 6.2583 17.4189C5.5861 17.7972 4.80339 17.9909 3.91016 18H1.15527V8.04688H3.96484ZM72.29 10.4668C73.8532 10.4668 74.6416 11.3486 74.6553 13.1123V18H73.3906V13.1055C73.3861 12.5723 73.2642 12.1781 73.0249 11.9229C72.7856 11.6676 72.4131 11.54 71.9072 11.54C71.4971 11.54 71.137 11.6494 70.8271 11.8682C70.5173 12.0869 70.2757 12.374 70.1025 12.7295V18H68.8379V10.6035H70.0342L70.0752 11.5332C70.6403 10.8223 71.3786 10.4668 72.29 10.4668ZM40.0449 10.4668C41.6081 10.4668 42.3965 11.3486 42.4102 13.1123V18H41.1455V13.1055C41.141 12.5723 41.019 12.1781 40.7798 11.9229C40.5405 11.6676 40.168 11.54 39.6621 11.54C39.252 11.54 38.8919 11.6494 38.582 11.8682C38.2721 12.0869 38.0306 12.374 37.8574 12.7295V18H36.5928V10.6035H37.7891L37.8301 11.5332C38.3952 10.8223 39.1335 10.4668 40.0449 10.4668ZM63.3486 7.5V18H62.084V7.5H63.3486ZM48.3369 10.6035L50.2168 16.2842L52.0488 10.6035H53.3408L50.6885 18H49.7246L47.0449 10.6035H48.3369ZM45.6914 10.6035V18H44.4199V10.6035H45.6914ZM11.5117 10.6035V18H10.2471V10.6035H11.5117ZM134.974 14C135.132 15.0172 134.553 16.0355 133.689 16.7684C132.829 17.5001 131.414 18.0687 130.03 17.9933C129.845 16.9987 130.543 15.963 131.339 15.3125C132.226 14.5826 133.734 14.0342 134.974 14ZM31.6299 11.5059C31.0055 11.5059 30.502 11.7542 30.1191 12.251C29.7363 12.7477 29.5449 13.4587 29.5449 14.3838C29.5449 15.2041 29.7352 15.8626 30.1157 16.3594C30.4963 16.8561 31.0055 17.1045 31.6436 17.1045C32.2861 17.1045 32.7965 16.8527 33.1748 16.3491C33.5531 15.8455 33.7422 15.1403 33.7422 14.2334C33.7422 13.4222 33.5496 12.7648 33.1646 12.2612C32.7795 11.7576 32.2679 11.5059 31.6299 11.5059ZM23.7412 11.54C22.9756 11.54 22.4014 11.8796 22.0186 12.5586V16.0928C22.3968 16.7673 22.9756 17.1045 23.7549 17.1045C24.361 17.1045 24.8429 16.8641 25.2007 16.3833C25.5584 15.9025 25.7373 15.1882 25.7373 14.2402C25.7373 13.4062 25.5596 12.7477 25.2041 12.2646C24.8486 11.7816 24.361 11.54 23.7412 11.54ZM80.9307 14.4111H79.9395C78.39 14.4111 77.6152 14.8646 77.6152 15.7715C77.6152 16.168 77.7474 16.4779 78.0117 16.7012C78.276 16.9245 78.6156 17.0361 79.0303 17.0361C79.4268 17.0361 79.8027 16.9336 80.1582 16.7285C80.5137 16.5234 80.7712 16.2568 80.9307 15.9287V14.4111ZM3.99902 9.12695H2.46777V16.9268H3.84863C4.86036 16.9268 5.64762 16.6123 6.21045 15.9834C6.77328 15.3545 7.05469 14.459 7.05469 13.2969V12.7158C7.05469 11.5856 6.78923 10.7072 6.2583 10.0806C5.72737 9.45394 4.97429 9.13607 3.99902 9.12695ZM57.4697 11.5059C56.9593 11.5059 56.5309 11.6916 56.1846 12.063C55.8382 12.4344 55.624 12.9551 55.542 13.625H59.2471V13.5293C59.2106 12.8867 59.0374 12.3888 58.7275 12.0356C58.4176 11.6825 57.9984 11.5059 57.4697 11.5059ZM47.2363 7.50684L45.4043 9.5166H44.3857L45.7051 7.50684H47.2363ZM10.8896 7.91016C11.1357 7.91016 11.3226 7.98079 11.4502 8.12207C11.5778 8.26335 11.6416 8.43652 11.6416 8.6416C11.6416 8.84668 11.5778 9.01758 11.4502 9.1543C11.3226 9.29102 11.1357 9.35938 10.8896 9.35938C10.6436 9.35938 10.4578 9.29102 10.3325 9.1543C10.2072 9.01758 10.1445 8.84668 10.1445 8.6416C10.1445 8.43652 10.2072 8.26335 10.3325 8.12207C10.4578 7.98079 10.6436 7.91016 10.8896 7.91016Z" fill="white"/>
</mask>
<g mask="url(#mask0)">
<path d="M129.423 0C137.286 0 144.595 3.36148 149.614 9.09213C153.709 13.7685 156 19.712 156 26C156 40.3659 144.095 52 129.423 52C123.259 52 117.414 49.9394 112.719 46.2241C112.247 45.8504 112.166 45.1635 112.539 44.6898C112.912 44.2162 113.596 44.1351 114.069 44.5089C118.381 47.9219 123.752 49.8151 129.423 49.8151C142.904 49.8151 153.822 39.1463 153.822 26C153.822 20.2495 151.728 14.8167 147.977 10.5341C143.369 5.27276 136.655 2.18487 129.423 2.18487C123.62 2.18487 118.134 4.16724 113.777 7.72573C113.31 8.10666 112.624 8.03617 112.245 7.56829C111.865 7.10041 111.935 6.41232 112.402 6.0314C117.145 2.15759 123.116 0 129.423 0ZM30.7227 29.2383C32.0247 29.2383 33.0371 29.72 33.7598 30.6836C34.4824 31.6471 34.8438 32.9753 34.8438 34.668V34.8145C34.8438 36.4421 34.4743 37.7458 33.7354 38.7256C32.9964 39.7054 31.9987 40.1953 30.7422 40.1953C29.6745 40.1953 28.8119 39.8242 28.1543 39.082V44.0625H25.332V29.4336H27.9492L28.0469 30.4688C28.7305 29.6484 29.6224 29.2383 30.7227 29.2383ZM19.4629 29.2383C20.765 29.2383 21.7773 29.72 22.5 30.6836C23.2227 31.6471 23.584 32.9753 23.584 34.668V34.8145C23.584 36.4421 23.2145 37.7458 22.4756 38.7256C21.7367 39.7054 20.7389 40.1953 19.4824 40.1953C18.4147 40.1953 17.5521 39.8242 16.8945 39.082V44.0625H14.0723V29.4336H16.6895L16.7871 30.4688C17.4707 29.6484 18.3626 29.2383 19.4629 29.2383ZM99.4141 29.2383C100.859 29.2383 101.997 29.694 102.827 30.6055C103.657 31.5169 104.072 32.8092 104.072 34.4824V35.6348H97.3438C97.4349 36.3249 97.71 36.8783 98.1689 37.2949C98.6279 37.7116 99.209 37.9199 99.9121 37.9199C100.999 37.9199 101.849 37.526 102.461 36.7383L103.848 38.291C103.424 38.89 102.852 39.3571 102.129 39.6924C101.406 40.0277 100.605 40.1953 99.7266 40.1953C98.1771 40.1953 96.9157 39.7201 95.9424 38.7695C94.9691 37.819 94.4824 36.5527 94.4824 34.9707V34.6973C94.4824 33.6361 94.6875 32.6872 95.0977 31.8506C95.5078 31.014 96.0889 30.3695 96.8408 29.917C97.5928 29.4645 98.4505 29.2383 99.4141 29.2383ZM80.9961 29.2383C82.4219 29.2383 83.5856 29.6745 84.4873 30.5469C85.389 31.4193 85.8919 32.6042 85.9961 34.1016L86.0156 34.8242C86.0156 36.4453 85.5632 37.7458 84.6582 38.7256C83.7533 39.7054 82.5391 40.1953 81.0156 40.1953C79.4922 40.1953 78.2764 39.707 77.3682 38.7305C76.46 37.7539 76.0059 36.4258 76.0059 34.7461V34.6191C76.0059 33.571 76.2077 32.6367 76.6113 31.8164C77.015 30.9961 77.596 30.3613 78.3545 29.9121C79.113 29.4629 79.9935 29.2383 80.9961 29.2383ZM73.3594 26.8359V29.4336H75.166V31.5039H73.3594V36.7773C73.3594 37.168 73.4342 37.4479 73.584 37.6172C73.7337 37.7865 74.0202 37.8711 74.4434 37.8711C74.7559 37.8711 75.0326 37.8483 75.2734 37.8027V39.9414C74.72 40.1107 74.1504 40.1953 73.5645 40.1953C71.5853 40.1953 70.5762 39.196 70.5371 37.1973V31.5039H68.9941V29.4336H70.5371V26.8359H73.3594ZM62.959 25.5859C63.9746 25.5859 64.8796 25.7699 65.6738 26.1377C66.4681 26.5055 67.085 27.0247 67.5244 27.6953C67.9639 28.3659 68.1836 29.1276 68.1836 29.9805H65.2539C65.2539 29.3294 65.0488 28.8232 64.6387 28.4619C64.2285 28.1006 63.6523 27.9199 62.9102 27.9199C62.194 27.9199 61.6374 28.0713 61.2402 28.374C60.8431 28.6768 60.6445 29.0755 60.6445 29.5703C60.6445 30.0326 60.8773 30.4199 61.3428 30.7324C61.8083 31.0449 62.4935 31.3379 63.3984 31.6113C65.0651 32.1126 66.2793 32.7344 67.041 33.4766C67.8027 34.2188 68.1836 35.1432 68.1836 36.25C68.1836 37.4805 67.7181 38.4456 66.7871 39.1455C65.8561 39.8454 64.6029 40.1953 63.0273 40.1953C61.9336 40.1953 60.9375 39.9951 60.0391 39.5947C59.1406 39.1943 58.4554 38.6458 57.9834 37.9492C57.5114 37.2526 57.2754 36.4453 57.2754 35.5273H60.2148C60.2148 37.0964 61.1523 37.8809 63.0273 37.8809C63.724 37.8809 64.2676 37.7393 64.6582 37.4561C65.0488 37.1729 65.2441 36.7773 65.2441 36.2695C65.2441 35.7161 65.0488 35.2913 64.6582 34.9951C64.2676 34.6989 63.5645 34.3864 62.5488 34.0576C61.5332 33.7288 60.7292 33.4049 60.1367 33.0859C58.5221 32.2135 57.7148 31.0384 57.7148 29.5605C57.7148 28.7923 57.9313 28.1071 58.3643 27.5049C58.7972 26.9027 59.4189 26.4323 60.2295 26.0938C61.04 25.7552 61.9499 25.5859 62.959 25.5859ZM46.4453 29.2383C47.8906 29.2383 49.0283 29.694 49.8584 30.6055C50.6885 31.5169 51.1035 32.8092 51.1035 34.4824V35.6348H44.375C44.4661 36.3249 44.7412 36.8783 45.2002 37.2949C45.6592 37.7116 46.2402 37.9199 46.9434 37.9199C48.0306 37.9199 48.8802 37.526 49.4922 36.7383L50.8789 38.291C50.4557 38.89 49.8828 39.3571 49.1602 39.6924C48.4375 40.0277 47.6367 40.1953 46.7578 40.1953C45.2083 40.1953 43.9469 39.7201 42.9736 38.7695C42.0003 37.819 41.5137 36.5527 41.5137 34.9707V34.6973C41.5137 33.6361 41.7187 32.6872 42.1289 31.8506C42.5391 31.014 43.1201 30.3695 43.8721 29.917C44.624 29.4645 45.4818 29.2383 46.4453 29.2383ZM8.07617 25.7812L13.3984 40H10.2832L9.29688 37.0703H4.16016L3.18359 40H0.0683594L5.36133 25.7812H8.07617ZM39.5703 25V40H36.7383V25H39.5703ZM92.8516 29.2383C93.1641 29.2383 93.457 29.2806 93.7305 29.3652L93.6914 32.0801C93.3073 32.028 92.9688 32.002 92.6758 32.002C91.6081 32.002 90.9082 32.3633 90.5762 33.0859V40H87.7539V29.4336H90.4199L90.498 30.6934C91.0645 29.7233 91.849 29.2383 92.8516 29.2383ZM80.9961 31.5234C80.306 31.5234 79.7721 31.792 79.3945 32.3291C79.0169 32.8662 78.8281 33.6979 78.8281 34.8242C78.8281 35.8268 79.0169 36.5934 79.3945 37.124C79.7721 37.6546 80.3125 37.9199 81.0156 37.9199C81.6992 37.9199 82.2331 37.6579 82.6172 37.1338C83.0013 36.6097 83.1934 35.7715 83.1934 34.6191C83.1934 33.6361 83.0013 32.8744 82.6172 32.334C82.2331 31.7936 81.6927 31.5234 80.9961 31.5234ZM29.9805 31.5332C29.095 31.5332 28.4863 31.8717 28.1543 32.5488V36.875C28.4994 37.5716 29.1146 37.9199 30 37.9199C31.3477 37.9199 32.0215 36.8164 32.0215 34.6094C32.0215 33.6263 31.8473 32.8678 31.499 32.334C31.1507 31.8001 30.6445 31.5332 29.9805 31.5332ZM18.7207 31.5332C17.8353 31.5332 17.2266 31.8717 16.8945 32.5488V36.875C17.2396 37.5716 17.8548 37.9199 18.7402 37.9199C20.0879 37.9199 20.7617 36.8164 20.7617 34.6094C20.7617 33.6263 20.5876 32.8678 20.2393 32.334C19.8909 31.8001 19.3848 31.5332 18.7207 31.5332ZM135.121 18.0177C135.879 18.0507 138.016 18.3125 139.39 20.2393C139.276 20.3083 136.84 21.6674 136.866 24.5018C136.897 27.8904 139.964 29.0184 140 29.0319C139.971 29.1084 139.508 30.6392 138.382 32.2151C137.413 33.5809 136.401 34.9422 134.81 34.9692C133.251 34.9984 132.748 34.0811 130.962 34.0811C129.176 34.0811 128.618 34.9422 127.14 34.9984C125.603 35.0562 124.438 33.5231 123.456 32.1641C121.45 29.3837 119.921 24.3052 121.974 20.8806C122.998 19.178 124.821 18.1025 126.803 18.0732C128.312 18.0492 129.733 19.046 130.655 19.046C131.577 19.046 133.303 17.8407 135.121 18.0177ZM6.71875 29.375L4.95117 34.6973H8.50586L6.71875 29.375ZM99.4043 31.5234C98.8444 31.5234 98.3903 31.7122 98.042 32.0898C97.6937 32.4674 97.4707 33.0078 97.373 33.7109H101.299V33.4863C101.286 32.8613 101.117 32.3779 100.791 32.0361C100.465 31.6943 100.003 31.5234 99.4043 31.5234ZM46.4355 31.5234C45.8756 31.5234 45.4216 31.7122 45.0732 32.0898C44.7249 32.4674 44.502 33.0078 44.4043 33.7109H48.3301V33.4863C48.3171 32.8613 48.1478 32.3779 47.8223 32.0361C47.4967 31.6943 47.0345 31.5234 46.4355 31.5234ZM24.1172 10.4668C25.0059 10.4668 25.7088 10.8018 26.2261 11.4717C26.7433 12.1416 27.002 13.0736 27.002 14.2676V14.3838C27.002 15.5094 26.7445 16.4163 26.2295 17.1045C25.7145 17.7926 25.0173 18.1367 24.1377 18.1367C23.2399 18.1367 22.5335 17.8519 22.0186 17.2822V20.8438H20.7539V10.6035H21.9092L21.9707 11.4238C22.4857 10.7858 23.2012 10.4668 24.1172 10.4668ZM31.6299 10.4668C32.637 10.4668 33.4517 10.8154 34.0737 11.5127C34.6958 12.21 35.0068 13.1374 35.0068 14.2949V14.3838C35.0068 15.1038 34.869 15.7498 34.5933 16.3218C34.3175 16.8937 33.9233 17.3392 33.4106 17.6582C32.8979 17.9772 32.3089 18.1367 31.6436 18.1367C30.6409 18.1367 29.8286 17.7881 29.2065 17.0908C28.5845 16.3936 28.2734 15.4707 28.2734 14.3223V14.2334C28.2734 13.5088 28.4159 12.8571 28.7007 12.2783C28.9855 11.6995 29.382 11.2529 29.8901 10.9385C30.3983 10.624 30.9782 10.4668 31.6299 10.4668ZM16.2148 10.4668C17.0534 10.4668 17.7336 10.6833 18.2554 11.1162C18.7772 11.5492 19.0381 12.1029 19.0381 12.7773H17.7666C17.7666 12.431 17.6196 12.1325 17.3257 11.8818C17.0317 11.6312 16.6615 11.5059 16.2148 11.5059C15.7546 11.5059 15.3945 11.6061 15.1348 11.8066C14.875 12.0072 14.7451 12.2692 14.7451 12.5928C14.7451 12.8981 14.8659 13.1283 15.1074 13.2832C15.349 13.4382 15.7853 13.5863 16.4165 13.7275C17.0477 13.8688 17.5592 14.0374 17.9512 14.2334C18.3431 14.4294 18.6336 14.6652 18.8228 14.9409C19.0119 15.2166 19.1064 15.5527 19.1064 15.9492C19.1064 16.61 18.8421 17.1398 18.3135 17.5386C17.7848 17.9373 17.099 18.1367 16.2559 18.1367C15.6634 18.1367 15.1393 18.0319 14.6836 17.8223C14.2279 17.6126 13.8713 17.3198 13.6138 16.9438C13.3563 16.5679 13.2275 16.1611 13.2275 15.7236H14.4922C14.515 16.1475 14.6847 16.4836 15.0015 16.7319C15.3182 16.9803 15.7363 17.1045 16.2559 17.1045C16.7344 17.1045 17.1183 17.0077 17.4077 16.814C17.6971 16.6203 17.8418 16.3617 17.8418 16.0381C17.8418 15.6963 17.7131 15.4308 17.4556 15.2417C17.1981 15.0526 16.7492 14.8896 16.1089 14.7529C15.4686 14.6162 14.9605 14.4521 14.5845 14.2607C14.2085 14.0693 13.9305 13.8415 13.7505 13.5771C13.5705 13.3128 13.4805 12.9984 13.4805 12.6338C13.4805 12.0277 13.7368 11.515 14.2495 11.0957C14.7622 10.6764 15.4173 10.4668 16.2148 10.4668ZM57.4697 10.4668C58.4313 10.4668 59.1787 10.7835 59.7119 11.417C60.2451 12.0505 60.5117 12.9574 60.5117 14.1377V14.6641H55.501C55.5192 15.3932 55.7323 15.9823 56.1401 16.4312C56.548 16.88 57.0664 17.1045 57.6953 17.1045C58.1419 17.1045 58.5202 17.0133 58.8301 16.8311C59.14 16.6488 59.4111 16.4072 59.6436 16.1064L60.416 16.708C59.7962 17.6605 58.8665 18.1367 57.627 18.1367C56.6243 18.1367 55.8086 17.8075 55.1797 17.1489C54.5508 16.4904 54.2363 15.6097 54.2363 14.5068V14.2744C54.2363 13.5407 54.3765 12.8856 54.6567 12.3091C54.937 11.7326 55.3289 11.2814 55.8325 10.9556C56.3361 10.6297 56.8818 10.4668 57.4697 10.4668ZM79.4404 10.4668C80.2926 10.4668 80.9603 10.6798 81.4434 11.106C81.9264 11.5321 82.1771 12.1188 82.1953 12.8662V16.2705C82.1953 16.9495 82.2819 17.4896 82.4551 17.8906V18H81.1289C81.056 17.8542 80.9967 17.5944 80.9512 17.2207C80.3633 17.8314 79.6615 18.1367 78.8457 18.1367C78.1165 18.1367 77.5184 17.9305 77.0513 17.5181C76.5841 17.1056 76.3506 16.5827 76.3506 15.9492C76.3506 15.179 76.6434 14.5809 77.229 14.1548C77.8146 13.7287 78.6383 13.5156 79.7002 13.5156H80.9307V12.9346C80.9307 12.4925 80.7985 12.1405 80.5342 11.8784C80.2699 11.6164 79.8802 11.4854 79.3652 11.4854C78.9141 11.4854 78.5358 11.5993 78.2305 11.8271C77.9251 12.055 77.7725 12.3307 77.7725 12.6543H76.501C76.501 12.2852 76.632 11.9285 76.894 11.5845C77.1561 11.2404 77.5116 10.9681 77.9604 10.7676C78.4093 10.5671 78.9027 10.4668 79.4404 10.4668ZM3.96484 8.04688C4.83073 8.04688 5.59635 8.23828 6.26172 8.62109C6.92709 9.00391 7.44092 9.5485 7.80322 10.2549C8.16553 10.9613 8.34896 11.7725 8.35352 12.6885V13.3242C8.35352 14.263 8.17237 15.0856 7.81006 15.792C7.44775 16.4984 6.9305 17.0407 6.2583 17.4189C5.5861 17.7972 4.80339 17.9909 3.91016 18H1.15527V8.04688H3.96484ZM72.29 10.4668C73.8532 10.4668 74.6416 11.3486 74.6553 13.1123V18H73.3906V13.1055C73.3861 12.5723 73.2642 12.1781 73.0249 11.9229C72.7856 11.6676 72.4131 11.54 71.9072 11.54C71.4971 11.54 71.137 11.6494 70.8271 11.8682C70.5173 12.0869 70.2757 12.374 70.1025 12.7295V18H68.8379V10.6035H70.0342L70.0752 11.5332C70.6403 10.8223 71.3786 10.4668 72.29 10.4668ZM40.0449 10.4668C41.6081 10.4668 42.3965 11.3486 42.4102 13.1123V18H41.1455V13.1055C41.141 12.5723 41.019 12.1781 40.7798 11.9229C40.5405 11.6676 40.168 11.54 39.6621 11.54C39.252 11.54 38.8919 11.6494 38.582 11.8682C38.2721 12.0869 38.0306 12.374 37.8574 12.7295V18H36.5928V10.6035H37.7891L37.8301 11.5332C38.3952 10.8223 39.1335 10.4668 40.0449 10.4668ZM63.3486 7.5V18H62.084V7.5H63.3486ZM48.3369 10.6035L50.2168 16.2842L52.0488 10.6035H53.3408L50.6885 18H49.7246L47.0449 10.6035H48.3369ZM45.6914 10.6035V18H44.4199V10.6035H45.6914ZM11.5117 10.6035V18H10.2471V10.6035H11.5117ZM134.974 14C135.132 15.0172 134.553 16.0355 133.689 16.7684C132.829 17.5001 131.414 18.0687 130.03 17.9933C129.845 16.9987 130.543 15.963 131.339 15.3125C132.226 14.5826 133.734 14.0342 134.974 14ZM31.6299 11.5059C31.0055 11.5059 30.502 11.7542 30.1191 12.251C29.7363 12.7477 29.5449 13.4587 29.5449 14.3838C29.5449 15.2041 29.7352 15.8626 30.1157 16.3594C30.4963 16.8561 31.0055 17.1045 31.6436 17.1045C32.2861 17.1045 32.7965 16.8527 33.1748 16.3491C33.5531 15.8455 33.7422 15.1403 33.7422 14.2334C33.7422 13.4222 33.5496 12.7648 33.1646 12.2612C32.7795 11.7576 32.2679 11.5059 31.6299 11.5059ZM23.7412 11.54C22.9756 11.54 22.4014 11.8796 22.0186 12.5586V16.0928C22.3968 16.7673 22.9756 17.1045 23.7549 17.1045C24.361 17.1045 24.8429 16.8641 25.2007 16.3833C25.5584 15.9025 25.7373 15.1882 25.7373 14.2402C25.7373 13.4062 25.5596 12.7477 25.2041 12.2646C24.8486 11.7816 24.361 11.54 23.7412 11.54ZM80.9307 14.4111H79.9395C78.39 14.4111 77.6152 14.8646 77.6152 15.7715C77.6152 16.168 77.7474 16.4779 78.0117 16.7012C78.276 16.9245 78.6156 17.0361 79.0303 17.0361C79.4268 17.0361 79.8027 16.9336 80.1582 16.7285C80.5137 16.5234 80.7712 16.2568 80.9307 15.9287V14.4111ZM3.99902 9.12695H2.46777V16.9268H3.84863C4.86036 16.9268 5.64762 16.6123 6.21045 15.9834C6.77328 15.3545 7.05469 14.459 7.05469 13.2969V12.7158C7.05469 11.5856 6.78923 10.7072 6.2583 10.0806C5.72737 9.45394 4.97429 9.13607 3.99902 9.12695ZM57.4697 11.5059C56.9593 11.5059 56.5309 11.6916 56.1846 12.063C55.8382 12.4344 55.624 12.9551 55.542 13.625H59.2471V13.5293C59.2106 12.8867 59.0374 12.3888 58.7275 12.0356C58.4176 11.6825 57.9984 11.5059 57.4697 11.5059ZM47.2363 7.50684L45.4043 9.5166H44.3857L45.7051 7.50684H47.2363ZM10.8896 7.91016C11.1357 7.91016 11.3226 7.98079 11.4502 8.12207C11.5778 8.26335 11.6416 8.43652 11.6416 8.6416C11.6416 8.84668 11.5778 9.01758 11.4502 9.1543C11.3226 9.29102 11.1357 9.35938 10.8896 9.35938C10.6436 9.35938 10.4578 9.29102 10.3325 9.1543C10.2072 9.01758 10.1445 8.84668 10.1445 8.6416C10.1445 8.43652 10.2072 8.26335 10.3325 8.12207C10.4578 7.98079 10.6436 7.91016 10.8896 7.91016Z" fill="#32383A"/>
</g>
</svg>
