<svg width="157" height="52" viewBox="0 0 157 52" fill="none" xmlns="http://www.w3.org/2000/svg">
<mask id="mask0" mask-type="alpha" maskUnits="userSpaceOnUse" x="0" y="0" width="157" height="52">
<path d="M130.135 0.117676C137.92 0.117676 145.158 3.43606 150.127 9.09324C154.183 13.7097 156.451 19.577 156.451 25.7843C156.451 39.966 144.663 51.451 130.135 51.451C124.031 51.451 118.243 49.4168 113.595 45.7492C113.127 45.3803 113.047 44.7021 113.416 44.2346C113.785 43.767 114.463 43.687 114.931 44.0559C119.201 47.4251 124.519 49.2941 130.135 49.2941C143.484 49.2941 154.294 38.7621 154.294 25.7843C154.294 20.1076 152.221 14.7444 148.507 10.5167C143.944 5.32283 137.296 2.27454 130.135 2.27454C124.389 2.27454 118.956 4.23149 114.642 7.74436C114.18 8.1204 113.501 8.05082 113.124 7.58894C112.748 7.12706 112.818 6.44779 113.28 6.07175C117.977 2.2476 123.89 0.117676 130.135 0.117676ZM47.0686 28.9882C48.3688 28.9882 49.409 29.6391 50.0591 30.29V29.3787H52.3995V39.2722C52.3995 43.3077 50.0591 45 47.1986 45C44.4681 45 42.9078 43.1775 42.2577 41.7456L44.3381 40.8343C44.5981 41.7456 45.6383 42.787 47.0686 42.787C48.8889 42.787 50.0591 41.6154 50.0591 39.5326V38.7515H49.9291C49.409 39.4024 48.3688 40.0533 47.0686 40.0533C44.208 40.0533 41.7376 37.7101 41.7376 34.5858C41.7376 31.4616 44.3381 28.9882 47.0686 28.9882ZM101.678 29.3787L104.539 36.4083H104.669L107.4 29.3787H110L103.369 44.7397H100.898L103.369 39.2722L99.078 29.3787H101.678ZM62.9314 29.1184C65.792 29.1184 67.0922 31.3314 67.6123 32.6331L67.8723 33.284L60.461 36.4083C61.1111 37.5799 61.8913 38.1006 63.1915 38.1006C64.4917 38.1006 65.2719 37.4497 65.922 36.5385L67.7423 37.8402C67.2222 38.7515 65.6619 40.3136 63.1915 40.3136C60.0709 40.3136 57.7305 37.8402 57.7305 34.716C57.7305 31.3314 60.0709 29.1184 62.9314 29.1184ZM23.0142 29.1184C26.1348 29.1184 28.6052 31.3314 28.6052 34.716C28.6052 37.9704 26.1348 40.3136 23.0142 40.3136C19.8936 40.3136 17.4232 37.8402 17.4232 34.716C17.4232 31.4616 19.8936 29.1184 23.0142 29.1184ZM35.1064 29.1184C38.227 29.1184 40.6974 31.3314 40.6974 34.716C40.6974 37.9704 38.227 40.3136 35.1064 40.3136C31.9858 40.3136 29.5154 37.8402 29.5154 34.716C29.5154 31.4616 31.9858 29.1184 35.1064 29.1184ZM8.71158 23C11.3121 23 13.1324 24.0414 14.5626 25.3432L12.8723 27.0355C11.8322 26.1243 10.4019 25.3432 8.58156 25.3432C5.20095 25.3432 2.47045 28.0769 2.47045 31.5917C2.47045 35.1065 5.07092 37.8402 8.58156 37.8402C10.792 37.8402 12.0922 36.929 12.8723 36.1479C13.5225 35.4971 14.0426 34.4556 14.1726 33.1539H8.58156V30.8107H16.643C16.773 31.2012 16.7731 31.7219 16.7731 32.2426C16.7731 33.9349 16.253 36.1479 14.6927 37.7101C13.1324 39.4024 11.3121 40.1834 8.71158 40.1834C4.03073 40.1834 0 36.2781 0 31.5917C0 26.9053 4.03073 23 8.71158 23ZM94.0071 28.9882C96.7376 28.9882 98.948 30.6805 99.208 33.5444V39.7929H96.8676V38.4911H96.7376C96.0875 39.2722 95.3073 40.0533 93.617 40.0533C91.5366 40.0533 89.5863 38.6213 89.5863 36.4083C89.5863 34.0651 91.9267 32.7633 94.2671 32.7633C95.3073 32.7633 96.3475 33.1539 96.7376 33.4142V33.284C96.6076 31.9823 95.4374 31.2012 94.1371 31.2012C93.227 31.2012 92.4468 31.4615 91.9267 32.3728L89.7163 31.4615C90.3664 29.7692 92.1868 28.9882 94.0071 28.9882ZM88.026 23.5207V39.7929H85.5556V23.5207H88.026ZM78.9243 23.5207C81.6548 23.5207 84.2553 25.4734 84.2553 28.5976C84.2553 31.7219 81.6548 33.6746 78.9243 33.6746H75.5437V39.7929H73.0733V23.5207H78.9243ZM56.4303 23.5207V39.7929H53.9598V23.5207H56.4303ZM94.3972 34.8462C93.227 34.8462 91.7967 35.2367 91.7967 36.5385C91.7967 37.5799 92.9669 37.9704 93.747 37.9704C95.0473 37.9704 96.3475 36.929 96.6076 35.3669C95.9574 35.1065 95.4374 34.8462 94.3972 34.8462ZM47.1986 31.2012C45.5083 31.2012 44.078 32.6331 44.078 34.5858C44.078 36.5385 45.5083 37.9704 47.1986 37.9704C48.8889 37.9704 50.1891 36.5385 50.1891 34.5858C50.1891 32.6331 48.8889 31.2012 47.1986 31.2012ZM23.0142 31.2012C21.3239 31.2012 19.8936 32.6331 19.8936 34.5858C19.8936 36.5385 21.3239 37.9704 23.0142 37.9704C24.7045 37.9704 26.1348 36.5385 26.1348 34.5858C26.1348 32.503 24.7045 31.2012 23.0142 31.2012ZM35.1064 31.2012C33.4161 31.2012 31.9858 32.6331 31.9858 34.5858C31.9858 36.5385 33.4161 37.9704 35.1064 37.9704C36.7967 37.9704 38.227 36.5385 38.227 34.5858C38.227 32.503 36.7967 31.2012 35.1064 31.2012ZM124.692 15.0181L133.751 25.5065L124.775 35.891C124.411 35.791 124.175 35.4225 124.175 34.8524V16.0318C124.175 15.5565 124.337 15.2205 124.601 15.0637L124.692 15.0181ZM134.27 26.1069L136.925 29.1819L126.022 35.4915L134.27 26.1069ZM62.9314 31.2012C61.7612 31.2012 60.0709 32.3728 60.0709 34.4556L65.0118 32.3728C64.7518 31.7219 63.8416 31.2012 62.9314 31.2012ZM79.0544 25.7337H75.5437V31.3314H79.0544C80.7447 31.3314 81.7849 29.8994 81.9149 28.4675C81.9149 27.2959 80.8747 25.7337 79.0544 25.7337ZM137.73 22.1697L141.942 24.6076C142.739 25.0692 142.747 25.8133 141.942 26.279L137.623 28.7779L134.807 25.4959L137.73 22.1697ZM126.249 15.5244L137 21.7475L134.285 24.8885L126.249 15.5244ZM24.1172 10.4668C25.0059 10.4668 25.7088 10.8018 26.2261 11.4717C26.7433 12.1416 27.002 13.0736 27.002 14.2676V14.3838C27.002 15.5095 26.7445 16.4163 26.2295 17.1045C25.7145 17.7927 25.0173 18.1367 24.1377 18.1367C23.2399 18.1367 22.5335 17.8519 22.0186 17.2822V20.8438H20.7539V10.6035H21.9092L21.9707 11.4238C22.4857 10.7858 23.2012 10.4668 24.1172 10.4668ZM79.4404 10.4668C80.2926 10.4668 80.9603 10.6799 81.4434 11.106C81.9264 11.5321 82.1771 12.1188 82.1953 12.8662V16.2705C82.1953 16.9496 82.2819 17.4896 82.4551 17.8906V18H81.1289C81.056 17.8542 80.9967 17.5944 80.9512 17.2207C80.3633 17.8314 79.6615 18.1367 78.8457 18.1367C78.1165 18.1367 77.5184 17.9305 77.0513 17.5181C76.5841 17.1056 76.3506 16.5827 76.3506 15.9492C76.3506 15.179 76.6434 14.5809 77.229 14.1548C77.8146 13.7287 78.6383 13.5156 79.7002 13.5156H80.9307V12.9346C80.9307 12.4925 80.7985 12.1405 80.5342 11.8784C80.2699 11.6164 79.8802 11.4854 79.3652 11.4854C78.9141 11.4854 78.5358 11.5993 78.2305 11.8272C77.9251 12.055 77.7725 12.3307 77.7725 12.6543H76.501C76.501 12.2852 76.632 11.9286 76.894 11.5845C77.1561 11.2404 77.5116 10.9681 77.9604 10.7676C78.4093 10.5671 78.9027 10.4668 79.4404 10.4668ZM16.2148 10.4668C17.0534 10.4668 17.7336 10.6833 18.2554 11.1162C18.7772 11.5492 19.0381 12.1029 19.0381 12.7774H17.7666C17.7666 12.431 17.6196 12.1325 17.3257 11.8818C17.0317 11.6312 16.6615 11.5059 16.2148 11.5059C15.7546 11.5059 15.3945 11.6061 15.1348 11.8067C14.875 12.0072 14.7451 12.2692 14.7451 12.5928C14.7451 12.8981 14.8659 13.1283 15.1074 13.2832C15.349 13.4382 15.7853 13.5863 16.4165 13.7276C17.0477 13.8688 17.5592 14.0374 17.9512 14.2334C18.3431 14.4294 18.6336 14.6652 18.8228 14.9409C19.0119 15.2166 19.1064 15.5527 19.1064 15.9492C19.1064 16.61 18.8421 17.1398 18.3135 17.5386C17.7848 17.9374 17.099 18.1367 16.2559 18.1367C15.6634 18.1367 15.1393 18.0319 14.6836 17.8223C14.2279 17.6126 13.8713 17.3198 13.6138 16.9439C13.3563 16.5679 13.2275 16.1611 13.2275 15.7236H14.4922C14.515 16.1475 14.6847 16.4836 15.0015 16.7319C15.3182 16.9803 15.7363 17.1045 16.2559 17.1045C16.7344 17.1045 17.1183 17.0077 17.4077 16.814C17.6971 16.6203 17.8418 16.3617 17.8418 16.0381C17.8418 15.6963 17.7131 15.4308 17.4556 15.2417C17.1981 15.0526 16.7492 14.8897 16.1089 14.7529C15.4686 14.6162 14.9605 14.4522 14.5845 14.2608C14.2085 14.0693 13.9305 13.8415 13.7505 13.5772C13.5705 13.3128 13.4805 12.9984 13.4805 12.6338C13.4805 12.0277 13.7368 11.515 14.2495 11.0957C14.7622 10.6764 15.4173 10.4668 16.2148 10.4668ZM57.4697 10.4668C58.4313 10.4668 59.1787 10.7835 59.7119 11.417C60.2451 12.0505 60.5117 12.9574 60.5117 14.1377V14.6641H55.501C55.5192 15.3932 55.7323 15.9823 56.1401 16.4312C56.548 16.8801 57.0664 17.1045 57.6953 17.1045C58.1419 17.1045 58.5202 17.0134 58.8301 16.8311C59.14 16.6488 59.4111 16.4072 59.6436 16.1065L60.416 16.708C59.7962 17.6605 58.8665 18.1367 57.627 18.1367C56.6243 18.1367 55.8086 17.8075 55.1797 17.1489C54.5508 16.4904 54.2363 15.6097 54.2363 14.5068V14.2744C54.2363 13.5407 54.3765 12.8856 54.6567 12.3091C54.937 11.7326 55.3289 11.2814 55.8325 10.9556C56.3361 10.6297 56.8818 10.4668 57.4697 10.4668ZM31.6299 10.4668C32.637 10.4668 33.4517 10.8154 34.0737 11.5127C34.6958 12.21 35.0068 13.1374 35.0068 14.2949V14.3838C35.0068 15.1039 34.869 15.7498 34.5933 16.3218C34.3175 16.8937 33.9233 17.3392 33.4106 17.6582C32.8979 17.9772 32.3089 18.1367 31.6436 18.1367C30.6409 18.1367 29.8286 17.7881 29.2065 17.0908C28.5845 16.3936 28.2734 15.4707 28.2734 14.3223V14.2334C28.2734 13.5088 28.4159 12.8571 28.7007 12.2783C28.9855 11.6996 29.382 11.2529 29.8901 10.9385C30.3983 10.624 30.9782 10.4668 31.6299 10.4668ZM63.3486 7.50001V18H62.084V7.50001H63.3486ZM3.96484 8.04689C4.83073 8.04689 5.59635 8.23829 6.26172 8.62111C6.92709 9.00392 7.44092 9.54851 7.80322 10.2549C8.16553 10.9613 8.34896 11.7725 8.35352 12.6885V13.3242C8.35352 14.263 8.17237 15.0856 7.81006 15.792C7.44775 16.4984 6.9305 17.0407 6.2583 17.419C5.5861 17.7972 4.80339 17.9909 3.91016 18H1.15527V8.04689H3.96484ZM45.6914 10.6035V18H44.4199V10.6035H45.6914ZM72.29 10.4668C73.8532 10.4668 74.6416 11.3486 74.6553 13.1123V18H73.3906V13.1055C73.3861 12.5723 73.2642 12.1781 73.0249 11.9229C72.7856 11.6677 72.4131 11.5401 71.9072 11.5401C71.4971 11.5401 71.137 11.6494 70.8271 11.8682C70.5173 12.0869 70.2757 12.374 70.1025 12.7295V18H68.8379V10.6035H70.0342L70.0752 11.5332C70.6403 10.8223 71.3786 10.4668 72.29 10.4668ZM48.3369 10.6035L50.2168 16.2842L52.0488 10.6035H53.3408L50.6885 18H49.7246L47.0449 10.6035H48.3369ZM11.5117 10.6035V18H10.2471V10.6035H11.5117ZM40.0449 10.4668C41.6081 10.4668 42.3965 11.3486 42.4102 13.1123V18H41.1455V13.1055C41.141 12.5723 41.019 12.1781 40.7798 11.9229C40.5405 11.6677 40.168 11.5401 39.6621 11.5401C39.252 11.5401 38.8919 11.6494 38.582 11.8682C38.2721 12.0869 38.0306 12.374 37.8574 12.7295V18H36.5928V10.6035H37.7891L37.8301 11.5332C38.3952 10.8223 39.1335 10.4668 40.0449 10.4668ZM23.7412 11.5401C22.9756 11.5401 22.4014 11.8796 22.0186 12.5586V16.0928C22.3968 16.7673 22.9756 17.1045 23.7549 17.1045C24.361 17.1045 24.8429 16.8641 25.2007 16.3833C25.5584 15.9025 25.7373 15.1882 25.7373 14.2402C25.7373 13.4063 25.5596 12.7477 25.2041 12.2647C24.8486 11.7816 24.361 11.5401 23.7412 11.5401ZM31.6299 11.5059C31.0055 11.5059 30.502 11.7542 30.1191 12.251C29.7363 12.7477 29.5449 13.4587 29.5449 14.3838C29.5449 15.2041 29.7352 15.8626 30.1157 16.3594C30.4963 16.8561 31.0055 17.1045 31.6436 17.1045C32.2861 17.1045 32.7965 16.8527 33.1748 16.3491C33.5531 15.8455 33.7422 15.1403 33.7422 14.2334C33.7422 13.4222 33.5496 12.7648 33.1646 12.2612C32.7795 11.7577 32.2679 11.5059 31.6299 11.5059ZM80.9307 14.4111H79.9395C78.39 14.4111 77.6152 14.8646 77.6152 15.7715C77.6152 16.168 77.7474 16.4779 78.0117 16.7012C78.276 16.9245 78.6156 17.0361 79.0303 17.0361C79.4268 17.0361 79.8027 16.9336 80.1582 16.7285C80.5137 16.5234 80.7712 16.2568 80.9307 15.9287V14.4111ZM3.99902 9.12696H2.46777V16.9268H3.84863C4.86036 16.9268 5.64762 16.6123 6.21045 15.9834C6.77328 15.3545 7.05469 14.459 7.05469 13.2969V12.7158C7.05469 11.5856 6.78923 10.7072 6.2583 10.0806C5.72737 9.45395 4.97429 9.13608 3.99902 9.12696ZM57.4697 11.5059C56.9593 11.5059 56.5309 11.6916 56.1846 12.063C55.8382 12.4344 55.624 12.9551 55.542 13.625H59.2471V13.5293C59.2106 12.8867 59.0374 12.3888 58.7275 12.0357C58.4176 11.6825 57.9984 11.5059 57.4697 11.5059ZM47.2363 7.50685L45.4043 9.51661H44.3857L45.7051 7.50685H47.2363ZM10.8896 7.91017C11.1357 7.91017 11.3226 7.98081 11.4502 8.12208C11.5778 8.26336 11.6416 8.43653 11.6416 8.64161C11.6416 8.84669 11.5778 9.01759 11.4502 9.15431C11.3226 9.29103 11.1357 9.35939 10.8896 9.35939C10.6436 9.35939 10.4578 9.29103 10.3325 9.15431C10.2072 9.01759 10.1445 8.84669 10.1445 8.64161C10.1445 8.43653 10.2072 8.26336 10.3325 8.12208C10.4578 7.98081 10.6436 7.91017 10.8896 7.91017Z" fill="white"/>
</mask>
<g mask="url(#mask0)">
<path d="M130.135 0.117676C137.92 0.117676 145.158 3.43606 150.127 9.09324C154.183 13.7097 156.451 19.577 156.451 25.7843C156.451 39.966 144.663 51.451 130.135 51.451C124.031 51.451 118.243 49.4168 113.595 45.7492C113.127 45.3803 113.047 44.7021 113.416 44.2346C113.785 43.767 114.463 43.687 114.931 44.0559C119.201 47.4251 124.519 49.2941 130.135 49.2941C143.484 49.2941 154.294 38.7621 154.294 25.7843C154.294 20.1076 152.221 14.7444 148.507 10.5167C143.944 5.32283 137.296 2.27454 130.135 2.27454C124.389 2.27454 118.956 4.23149 114.642 7.74436C114.18 8.1204 113.501 8.05082 113.124 7.58894C112.748 7.12706 112.818 6.44779 113.28 6.07175C117.977 2.2476 123.89 0.117676 130.135 0.117676ZM47.0686 28.9882C48.3688 28.9882 49.409 29.6391 50.0591 30.29V29.3787H52.3995V39.2722C52.3995 43.3077 50.0591 45 47.1986 45C44.4681 45 42.9078 43.1775 42.2577 41.7456L44.3381 40.8343C44.5981 41.7456 45.6383 42.787 47.0686 42.787C48.8889 42.787 50.0591 41.6154 50.0591 39.5326V38.7515H49.9291C49.409 39.4024 48.3688 40.0533 47.0686 40.0533C44.208 40.0533 41.7376 37.7101 41.7376 34.5858C41.7376 31.4616 44.3381 28.9882 47.0686 28.9882ZM101.678 29.3787L104.539 36.4083H104.669L107.4 29.3787H110L103.369 44.7397H100.898L103.369 39.2722L99.078 29.3787H101.678ZM62.9314 29.1184C65.792 29.1184 67.0922 31.3314 67.6123 32.6331L67.8723 33.284L60.461 36.4083C61.1111 37.5799 61.8913 38.1006 63.1915 38.1006C64.4917 38.1006 65.2719 37.4497 65.922 36.5385L67.7423 37.8402C67.2222 38.7515 65.6619 40.3136 63.1915 40.3136C60.0709 40.3136 57.7305 37.8402 57.7305 34.716C57.7305 31.3314 60.0709 29.1184 62.9314 29.1184ZM23.0142 29.1184C26.1348 29.1184 28.6052 31.3314 28.6052 34.716C28.6052 37.9704 26.1348 40.3136 23.0142 40.3136C19.8936 40.3136 17.4232 37.8402 17.4232 34.716C17.4232 31.4616 19.8936 29.1184 23.0142 29.1184ZM35.1064 29.1184C38.227 29.1184 40.6974 31.3314 40.6974 34.716C40.6974 37.9704 38.227 40.3136 35.1064 40.3136C31.9858 40.3136 29.5154 37.8402 29.5154 34.716C29.5154 31.4616 31.9858 29.1184 35.1064 29.1184ZM8.71158 23C11.3121 23 13.1324 24.0414 14.5626 25.3432L12.8723 27.0355C11.8322 26.1243 10.4019 25.3432 8.58156 25.3432C5.20095 25.3432 2.47045 28.0769 2.47045 31.5917C2.47045 35.1065 5.07092 37.8402 8.58156 37.8402C10.792 37.8402 12.0922 36.929 12.8723 36.1479C13.5225 35.4971 14.0426 34.4556 14.1726 33.1539H8.58156V30.8107H16.643C16.773 31.2012 16.7731 31.7219 16.7731 32.2426C16.7731 33.9349 16.253 36.1479 14.6927 37.7101C13.1324 39.4024 11.3121 40.1834 8.71158 40.1834C4.03073 40.1834 0 36.2781 0 31.5917C0 26.9053 4.03073 23 8.71158 23ZM94.0071 28.9882C96.7376 28.9882 98.948 30.6805 99.208 33.5444V39.7929H96.8676V38.4911H96.7376C96.0875 39.2722 95.3073 40.0533 93.617 40.0533C91.5366 40.0533 89.5863 38.6213 89.5863 36.4083C89.5863 34.0651 91.9267 32.7633 94.2671 32.7633C95.3073 32.7633 96.3475 33.1539 96.7376 33.4142V33.284C96.6076 31.9823 95.4374 31.2012 94.1371 31.2012C93.227 31.2012 92.4468 31.4615 91.9267 32.3728L89.7163 31.4615C90.3664 29.7692 92.1868 28.9882 94.0071 28.9882ZM88.026 23.5207V39.7929H85.5556V23.5207H88.026ZM78.9243 23.5207C81.6548 23.5207 84.2553 25.4734 84.2553 28.5976C84.2553 31.7219 81.6548 33.6746 78.9243 33.6746H75.5437V39.7929H73.0733V23.5207H78.9243ZM56.4303 23.5207V39.7929H53.9598V23.5207H56.4303ZM94.3972 34.8462C93.227 34.8462 91.7967 35.2367 91.7967 36.5385C91.7967 37.5799 92.9669 37.9704 93.747 37.9704C95.0473 37.9704 96.3475 36.929 96.6076 35.3669C95.9574 35.1065 95.4374 34.8462 94.3972 34.8462ZM47.1986 31.2012C45.5083 31.2012 44.078 32.6331 44.078 34.5858C44.078 36.5385 45.5083 37.9704 47.1986 37.9704C48.8889 37.9704 50.1891 36.5385 50.1891 34.5858C50.1891 32.6331 48.8889 31.2012 47.1986 31.2012ZM23.0142 31.2012C21.3239 31.2012 19.8936 32.6331 19.8936 34.5858C19.8936 36.5385 21.3239 37.9704 23.0142 37.9704C24.7045 37.9704 26.1348 36.5385 26.1348 34.5858C26.1348 32.503 24.7045 31.2012 23.0142 31.2012ZM35.1064 31.2012C33.4161 31.2012 31.9858 32.6331 31.9858 34.5858C31.9858 36.5385 33.4161 37.9704 35.1064 37.9704C36.7967 37.9704 38.227 36.5385 38.227 34.5858C38.227 32.503 36.7967 31.2012 35.1064 31.2012ZM124.692 15.0181L133.751 25.5065L124.775 35.891C124.411 35.791 124.175 35.4225 124.175 34.8524V16.0318C124.175 15.5565 124.337 15.2205 124.601 15.0637L124.692 15.0181ZM134.27 26.1069L136.925 29.1819L126.022 35.4915L134.27 26.1069ZM62.9314 31.2012C61.7612 31.2012 60.0709 32.3728 60.0709 34.4556L65.0118 32.3728C64.7518 31.7219 63.8416 31.2012 62.9314 31.2012ZM79.0544 25.7337H75.5437V31.3314H79.0544C80.7447 31.3314 81.7849 29.8994 81.9149 28.4675C81.9149 27.2959 80.8747 25.7337 79.0544 25.7337ZM137.73 22.1697L141.942 24.6076C142.739 25.0692 142.747 25.8133 141.942 26.279L137.623 28.7779L134.807 25.4959L137.73 22.1697ZM126.249 15.5244L137 21.7475L134.285 24.8885L126.249 15.5244ZM24.1172 10.4668C25.0059 10.4668 25.7088 10.8018 26.2261 11.4717C26.7433 12.1416 27.002 13.0736 27.002 14.2676V14.3838C27.002 15.5095 26.7445 16.4163 26.2295 17.1045C25.7145 17.7927 25.0173 18.1367 24.1377 18.1367C23.2399 18.1367 22.5335 17.8519 22.0186 17.2822V20.8438H20.7539V10.6035H21.9092L21.9707 11.4238C22.4857 10.7858 23.2012 10.4668 24.1172 10.4668ZM79.4404 10.4668C80.2926 10.4668 80.9603 10.6799 81.4434 11.106C81.9264 11.5321 82.1771 12.1188 82.1953 12.8662V16.2705C82.1953 16.9496 82.2819 17.4896 82.4551 17.8906V18H81.1289C81.056 17.8542 80.9967 17.5944 80.9512 17.2207C80.3633 17.8314 79.6615 18.1367 78.8457 18.1367C78.1165 18.1367 77.5184 17.9305 77.0513 17.5181C76.5841 17.1056 76.3506 16.5827 76.3506 15.9492C76.3506 15.179 76.6434 14.5809 77.229 14.1548C77.8146 13.7287 78.6383 13.5156 79.7002 13.5156H80.9307V12.9346C80.9307 12.4925 80.7985 12.1405 80.5342 11.8784C80.2699 11.6164 79.8802 11.4854 79.3652 11.4854C78.9141 11.4854 78.5358 11.5993 78.2305 11.8272C77.9251 12.055 77.7725 12.3307 77.7725 12.6543H76.501C76.501 12.2852 76.632 11.9286 76.894 11.5845C77.1561 11.2404 77.5116 10.9681 77.9604 10.7676C78.4093 10.5671 78.9027 10.4668 79.4404 10.4668ZM16.2148 10.4668C17.0534 10.4668 17.7336 10.6833 18.2554 11.1162C18.7772 11.5492 19.0381 12.1029 19.0381 12.7774H17.7666C17.7666 12.431 17.6196 12.1325 17.3257 11.8818C17.0317 11.6312 16.6615 11.5059 16.2148 11.5059C15.7546 11.5059 15.3945 11.6061 15.1348 11.8067C14.875 12.0072 14.7451 12.2692 14.7451 12.5928C14.7451 12.8981 14.8659 13.1283 15.1074 13.2832C15.349 13.4382 15.7853 13.5863 16.4165 13.7276C17.0477 13.8688 17.5592 14.0374 17.9512 14.2334C18.3431 14.4294 18.6336 14.6652 18.8228 14.9409C19.0119 15.2166 19.1064 15.5527 19.1064 15.9492C19.1064 16.61 18.8421 17.1398 18.3135 17.5386C17.7848 17.9374 17.099 18.1367 16.2559 18.1367C15.6634 18.1367 15.1393 18.0319 14.6836 17.8223C14.2279 17.6126 13.8713 17.3198 13.6138 16.9439C13.3563 16.5679 13.2275 16.1611 13.2275 15.7236H14.4922C14.515 16.1475 14.6847 16.4836 15.0015 16.7319C15.3182 16.9803 15.7363 17.1045 16.2559 17.1045C16.7344 17.1045 17.1183 17.0077 17.4077 16.814C17.6971 16.6203 17.8418 16.3617 17.8418 16.0381C17.8418 15.6963 17.7131 15.4308 17.4556 15.2417C17.1981 15.0526 16.7492 14.8897 16.1089 14.7529C15.4686 14.6162 14.9605 14.4522 14.5845 14.2608C14.2085 14.0693 13.9305 13.8415 13.7505 13.5772C13.5705 13.3128 13.4805 12.9984 13.4805 12.6338C13.4805 12.0277 13.7368 11.515 14.2495 11.0957C14.7622 10.6764 15.4173 10.4668 16.2148 10.4668ZM57.4697 10.4668C58.4313 10.4668 59.1787 10.7835 59.7119 11.417C60.2451 12.0505 60.5117 12.9574 60.5117 14.1377V14.6641H55.501C55.5192 15.3932 55.7323 15.9823 56.1401 16.4312C56.548 16.8801 57.0664 17.1045 57.6953 17.1045C58.1419 17.1045 58.5202 17.0134 58.8301 16.8311C59.14 16.6488 59.4111 16.4072 59.6436 16.1065L60.416 16.708C59.7962 17.6605 58.8665 18.1367 57.627 18.1367C56.6243 18.1367 55.8086 17.8075 55.1797 17.1489C54.5508 16.4904 54.2363 15.6097 54.2363 14.5068V14.2744C54.2363 13.5407 54.3765 12.8856 54.6567 12.3091C54.937 11.7326 55.3289 11.2814 55.8325 10.9556C56.3361 10.6297 56.8818 10.4668 57.4697 10.4668ZM31.6299 10.4668C32.637 10.4668 33.4517 10.8154 34.0737 11.5127C34.6958 12.21 35.0068 13.1374 35.0068 14.2949V14.3838C35.0068 15.1039 34.869 15.7498 34.5933 16.3218C34.3175 16.8937 33.9233 17.3392 33.4106 17.6582C32.8979 17.9772 32.3089 18.1367 31.6436 18.1367C30.6409 18.1367 29.8286 17.7881 29.2065 17.0908C28.5845 16.3936 28.2734 15.4707 28.2734 14.3223V14.2334C28.2734 13.5088 28.4159 12.8571 28.7007 12.2783C28.9855 11.6996 29.382 11.2529 29.8901 10.9385C30.3983 10.624 30.9782 10.4668 31.6299 10.4668ZM63.3486 7.50001V18H62.084V7.50001H63.3486ZM3.96484 8.04689C4.83073 8.04689 5.59635 8.23829 6.26172 8.62111C6.92709 9.00392 7.44092 9.54851 7.80322 10.2549C8.16553 10.9613 8.34896 11.7725 8.35352 12.6885V13.3242C8.35352 14.263 8.17237 15.0856 7.81006 15.792C7.44775 16.4984 6.9305 17.0407 6.2583 17.419C5.5861 17.7972 4.80339 17.9909 3.91016 18H1.15527V8.04689H3.96484ZM45.6914 10.6035V18H44.4199V10.6035H45.6914ZM72.29 10.4668C73.8532 10.4668 74.6416 11.3486 74.6553 13.1123V18H73.3906V13.1055C73.3861 12.5723 73.2642 12.1781 73.0249 11.9229C72.7856 11.6677 72.4131 11.5401 71.9072 11.5401C71.4971 11.5401 71.137 11.6494 70.8271 11.8682C70.5173 12.0869 70.2757 12.374 70.1025 12.7295V18H68.8379V10.6035H70.0342L70.0752 11.5332C70.6403 10.8223 71.3786 10.4668 72.29 10.4668ZM48.3369 10.6035L50.2168 16.2842L52.0488 10.6035H53.3408L50.6885 18H49.7246L47.0449 10.6035H48.3369ZM11.5117 10.6035V18H10.2471V10.6035H11.5117ZM40.0449 10.4668C41.6081 10.4668 42.3965 11.3486 42.4102 13.1123V18H41.1455V13.1055C41.141 12.5723 41.019 12.1781 40.7798 11.9229C40.5405 11.6677 40.168 11.5401 39.6621 11.5401C39.252 11.5401 38.8919 11.6494 38.582 11.8682C38.2721 12.0869 38.0306 12.374 37.8574 12.7295V18H36.5928V10.6035H37.7891L37.8301 11.5332C38.3952 10.8223 39.1335 10.4668 40.0449 10.4668ZM23.7412 11.5401C22.9756 11.5401 22.4014 11.8796 22.0186 12.5586V16.0928C22.3968 16.7673 22.9756 17.1045 23.7549 17.1045C24.361 17.1045 24.8429 16.8641 25.2007 16.3833C25.5584 15.9025 25.7373 15.1882 25.7373 14.2402C25.7373 13.4063 25.5596 12.7477 25.2041 12.2647C24.8486 11.7816 24.361 11.5401 23.7412 11.5401ZM31.6299 11.5059C31.0055 11.5059 30.502 11.7542 30.1191 12.251C29.7363 12.7477 29.5449 13.4587 29.5449 14.3838C29.5449 15.2041 29.7352 15.8626 30.1157 16.3594C30.4963 16.8561 31.0055 17.1045 31.6436 17.1045C32.2861 17.1045 32.7965 16.8527 33.1748 16.3491C33.5531 15.8455 33.7422 15.1403 33.7422 14.2334C33.7422 13.4222 33.5496 12.7648 33.1646 12.2612C32.7795 11.7577 32.2679 11.5059 31.6299 11.5059ZM80.9307 14.4111H79.9395C78.39 14.4111 77.6152 14.8646 77.6152 15.7715C77.6152 16.168 77.7474 16.4779 78.0117 16.7012C78.276 16.9245 78.6156 17.0361 79.0303 17.0361C79.4268 17.0361 79.8027 16.9336 80.1582 16.7285C80.5137 16.5234 80.7712 16.2568 80.9307 15.9287V14.4111ZM3.99902 9.12696H2.46777V16.9268H3.84863C4.86036 16.9268 5.64762 16.6123 6.21045 15.9834C6.77328 15.3545 7.05469 14.459 7.05469 13.2969V12.7158C7.05469 11.5856 6.78923 10.7072 6.2583 10.0806C5.72737 9.45395 4.97429 9.13608 3.99902 9.12696ZM57.4697 11.5059C56.9593 11.5059 56.5309 11.6916 56.1846 12.063C55.8382 12.4344 55.624 12.9551 55.542 13.625H59.2471V13.5293C59.2106 12.8867 59.0374 12.3888 58.7275 12.0357C58.4176 11.6825 57.9984 11.5059 57.4697 11.5059ZM47.2363 7.50685L45.4043 9.51661H44.3857L45.7051 7.50685H47.2363ZM10.8896 7.91017C11.1357 7.91017 11.3226 7.98081 11.4502 8.12208C11.5778 8.26336 11.6416 8.43653 11.6416 8.64161C11.6416 8.84669 11.5778 9.01759 11.4502 9.15431C11.3226 9.29103 11.1357 9.35939 10.8896 9.35939C10.6436 9.35939 10.4578 9.29103 10.3325 9.15431C10.2072 9.01759 10.1445 8.84669 10.1445 8.64161C10.1445 8.43653 10.2072 8.26336 10.3325 8.12208C10.4578 7.98081 10.6436 7.91017 10.8896 7.91017Z" fill="#32383A"/>
</g>
</svg>
