<svg xmlns="http://www.w3.org/2000/svg" xmlns:xlink="http://www.w3.org/1999/xlink" width="84" height="32" viewBox="0 0 84 32">
    <defs>
        <path id="a" d="M.005 25.568v-.012l4.848-5.79c2.097 2.075 5.332 3.173 8.747 3.173 2.397 0 3.835-.915 3.894-2.136.06-2.074-3.474-2.379-6.71-3.293-3.655-1.038-7.549-3.539-6.53-8.786C5.02 4.76 8.46.144 17.146.004h.869c4.8.068 8.381 1.222 11.343 3.351l.478-2.501h8.87l-2.579 12.263L46.556.854h8.808l4.793 9.03 6.89-9.03h10.245L62.793 18.24l-2.157 10.86h-8.747l2.456-12.14L49.85 9.09l-5.871 6.528L51.889 29.1H41.343L35.17 17.875 33.072 29.1h-8.866l1.257-6.466c-2.397 5.551-6.89 7.382-13 7.382-5.15 0-9.88-1.584-12.458-4.448zM25.404 9.517c-3.775-2.135-6.291-2.622-8.988-2.622-1.497 0-3.175.365-3.415 1.83-.18 1.28 1.019 1.585 3.536 2.135 4.613.975 9.286 2.257 9.884 7.076L28.94 5.308l-3.535 4.209zm54.122-5.796h.799c.33 0 .538-.166.621-.498.081-.323-.03-.485-.336-.485h-.837l-.247.983zm-1.024 1.582l.785-3.127h1.518c.67 0 .923.324.76.971-.118.471-.341.753-.67.847.264.072.354.277.27.614l-.175.695h-.627l.145-.578c.074-.295-.034-.442-.325-.442h-.798l-.256 1.02h-.627zm2.256-3.946c-.622 0-1.212.235-1.77.704-.56.47-.922 1.038-1.09 1.704-.167.666-.09 1.235.233 1.706.323.471.795.707 1.416.707.622 0 1.21-.236 1.767-.707.557-.47.919-1.04 1.086-1.706.167-.663.09-1.23-.23-1.702-.32-.47-.79-.706-1.412-.706zm.1-.385c.73 0 1.284.273 1.666.818.38.546.475 1.205.281 1.975-.193.771-.618 1.43-1.274 1.977-.656.547-1.348.821-2.077.821-.736 0-1.296-.273-1.678-.819-.383-.546-.477-1.206-.283-1.979.194-.77.62-1.429 1.276-1.975.657-.545 1.353-.818 2.09-.818z"/>
    </defs>
    <g fill="none" fill-rule="evenodd" transform="translate(0 1)">
        <mask id="b" fill="#fff">
            <use xlink:href="#a"/>
        </mask>
        <g fill="#F35C58" fill-rule="nonzero" mask="url(#b)">
            <path d="M0-.845h83v32H0z"/>
        </g>
    </g>
</svg>
